<svg xmlns="http://www.w3.org/2000/svg" viewBox="0 0 24 24" className="size-6">

<symbol id="icon-home" viewBox="0 0 24 24">
  <path d="M11.47 3.841a.75.75 0 0 1 1.06 0l8.69 8.69a.75.75 0 1 0 1.06-1.061l-8.689-8.69a2.25 2.25 0 0 0-3.182 0l-8.69 8.69a.75.75 0 1 0 1.061 1.06l8.69-8.689Z" />
  <path d="m12 5.432 8.159 8.159c.03.03.06.058.091.086v6.198c0 1.035-.84 1.875-1.875 1.875H15a.75.75 0 0 1-.75-.75v-4.5a.75.75 0 0 0-.75-.75h-3a.75.75 0 0 0-.75.75V21a.75.75 0 0 1-.75.75H5.625a1.875 1.875 0 0 1-1.875-1.875v-6.198a2.29 2.29 0 0 0 .091-.086L12 5.432Z" />
</symbol>

<symbol id="icon-user" viewBox="0 0 24 24">
  <path fillRule="evenodd" d="M7.5 6a4.5 4.5 0 1 1 9 0 4.5 4.5 0 0 1-9 0ZM3.751 20.105a8.25 8.25 0 0 1 16.498 0 .75.75 0 0 1-.437.695A18.683 18.683 0 0 1 12 22.5c-2.786 0-5.433-.608-7.812-1.7a.75.75 0 0 1-.437-.695Z" clipRule="evenodd" />
</symbol>

<symbol id="icon-resume" viewBox="0 0 50 50">

  <path d="M37,4H13c-4.963,0-9,4.037-9,9v24c0,4.963,4.037,9,9,9h24c4.963,0,9-4.037,9-9V13C46,8.037,41.963,4,37,4z M14,15h18	c0.553,0,1,0.447,1,1c0,0.553-0.447,1-1,1H14c-0.553,0-1-0.447-1-1S13.447,15,14,15z M44,17.171	c-1.796,2.942-10.193,16.435-13.717,17.497L29.4,36.435c-0.175,0.351-0.528,0.553-0.896,0.553c-0.15,0-0.303-0.034-0.446-0.105	c-0.174-0.087-0.296-0.227-0.391-0.382c-0.906,0.334-1.853,0.483-2.647,0.487c-1.603-0.004-2.621-0.697-3.404-1.265	C20.979,35.261,20.59,35,20,35c-0.562,0-0.978,0.239-1.663,0.661C17.369,36.258,16.165,37,14,37c-0.553,0-1-0.447-1-1s0.447-1,1-1	c1.598,0,2.419-0.506,3.288-1.041C18.053,33.487,18.844,33,20,33c1.267,0,2.075,0.586,2.789,1.104	c0.682,0.493,1.22,0.884,2.201,0.884c0.007,0,0.013,0,0.02,0c1.253-0.006,2.914-0.486,3.635-1.518l0.1-0.2	c-0.134-1.062,0.159-2.55,0.73-4.27H14c-0.553,0-1-0.447-1-1s0.447-1,1-1h16.213c0.518-1.287,1.136-2.643,1.799-4H14	c-0.553,0-1-0.447-1-1s0.447-1,1-1h19.018c1.724-3.332,3.554-6.448,4.637-8.266c1.922,1.762,4.808,3.214,6.345,3.746V17.171z M44,14.596c-1.874-0.778-4.654-2.589-5.664-3.501V9.681l1.798-2.931C42.423,7.903,44,10.268,44,13V14.596z"></path>

</symbol>

<symbol id="icon-puzzle">
<path d="M 26.5625 1 C 22.621094 1 19.40625 4.140625 19.40625 8 C 19.40625 9.769531 20.035156 10.992188 21.125 12.53125 C 21.894531 13.621094 21.988281 14.34375 21.84375 14.625 C 21.703125 14.894531 21.164063 15.046875 20.46875 15 C 17.996094 14.832031 10.339844 13.941406 10.3125 13.9375 C 10.140625 13.910156 9.964844 13.90625 9.8125 13.90625 C 8.9375 13.90625 7.417969 14.328125 7.09375 17.15625 C 7.007813 17.570313 6.617188 19.808594 6.03125 27.5625 C 5.96875 27.878906 6.015625 28.164063 6.0625 28.40625 C 6.277344 29.503906 7.003906 30.15625 8 30.15625 C 9.03125 30.15625 10.203125 29.460938 11.78125 28.34375 C 13.097656 27.414063 14.191406 27 15.3125 27 C 18.152344 27 20.46875 29.242188 20.46875 32 C 20.46875 34.757813 18.152344 37 15.3125 37 C 13.988281 37 13.078125 36.632813 11.71875 35.5625 C 10.140625 34.320313 8.949219 33.75 8 33.75 C 7.160156 33.75 6.511719 34.210938 6.1875 35 C 6 35.460938 5.964844 36.144531 6.03125 36.53125 C 6.550781 41.972656 6.808594 42.972656 7.03125 43.84375 L 7.125 44.21875 C 7.511719 45.90625 8.707031 47 10.15625 47 L 42.1875 47 C 44.507813 47 46 45.527344 46 43.25 L 46 17.375 C 46 15.660156 45.085938 14.515625 43.25 13.96875 C 43.125 13.929688 42.976563 13.925781 42.84375 13.9375 C 42.769531 13.945313 35.261719 14.691406 32.59375 15 C 32.492188 15.011719 32.378906 15.03125 32.28125 15.03125 C 32.027344 15.03125 31.574219 14.992188 31.40625 14.6875 C 31.222656 14.359375 31.273438 13.605469 31.96875 12.5 L 32.09375 12.3125 C 33.160156 10.617188 33.6875 9.761719 33.6875 8 C 33.6875 4.140625 30.503906 1 26.5625 1 Z"></path>


</symbol>

<symbol id="icon-pen" viewBox="0 0 24 24">
  <path d="M21.731 2.269a2.625 2.625 0 0 0-3.712 0l-1.157 1.157 3.712 3.712 1.157-1.157a2.625 2.625 0 0 0 0-3.712ZM19.513 8.199l-3.712-3.712-12.15 12.15a5.25 5.25 0 0 0-1.32 2.214l-.8 2.685a.75.75 0 0 0 .933.933l2.685-.8a5.25 5.25 0 0 0 2.214-1.32L19.513 8.2Z" />
</symbol>

<symbol id="icon-mail" viewBox="0 0 24 24">
  <path d="M1.5 8.67v8.58a3 3 0 0 0 3 3h15a3 3 0 0 0 3-3V8.67l-8.928 5.493a3 3 0 0 1-3.144 0L1.5 8.67Z" />
  <path d="M22.5 6.908V6.75a3 3 0 0 0-3-3h-15a3 3 0 0 0-3 3v.158l9.714 5.978a1.5 1.5 0 0 0 1.572 0L22.5 6.908Z" />
</symbol>

<!-- social media -->

<symbol id="icon-instagram" viewBox="0 0 50 50">
  <path d="M 16 3 C 8.83 3 3 8.83 3 16 L 3 34 C 3 41.17 8.83 47 16 47 L 34 47 C 41.17 47 47 41.17 47 34 L 47 16 C 47 8.83 41.17 3 34 3 L 16 3 z M 37 11 C 38.1 11 39 11.9 39 13 C 39 14.1 38.1 15 37 15 C 35.9 15 35 14.1 35 13 C 35 11.9 35.9 11 37 11 z M 25 14 C 31.07 14 36 18.93 36 25 C 36 31.07 31.07 36 25 36 C 18.93 36 14 31.07 14 25 C 14 18.93 18.93 14 25 14 z M 25 16 C 20.04 16 16 20.04 16 25 C 16 29.96 20.04 34 25 34 C 29.96 34 34 29.96 34 25 C 34 20.04 29.96 16 25 16 z"></path>
</symbol>


<symbol id="icon-linkedin" viewBox="0 0 50 50">
  <path d="M41,4H9C6.24,4,4,6.24,4,9v32c0,2.76,2.24,5,5,5h32c2.76,0,5-2.24,5-5V9C46,6.24,43.76,4,41,4z M17,20v19h-6V20H17z M11,14.47c0-1.4,1.2-2.47,3-2.47s2.93,1.07,3,2.47c0,1.4-1.12,2.53-3,2.53C12.2,17,11,15.87,11,14.47z M39,39h-6c0,0,0-9.26,0-10 c0-2-1-4-3.5-4.04h-0.08C27,24.96,26,27.02,26,29c0,0.91,0,10,0,10h-6V20h6v2.56c0,0,1.93-2.56,5.81-2.56 c3.97,0,7.19,2.73,7.19,8.26V39z"></path>
</symbol>


<symbol id="icon-telegram" viewBox="0 0 50 50">
  <path d="M25,2c12.703,0,23,10.297,23,23S37.703,48,25,48S2,37.703,2,25S12.297,2,25,2z M32.934,34.375	c0.423-1.298,2.405-14.234,2.65-16.783c0.074-0.772-0.17-1.285-0.648-1.514c-0.578-0.278-1.434-0.139-2.427,0.219	c-1.362,0.491-18.774,7.884-19.78,8.312c-0.954,0.405-1.856,0.847-1.856,1.487c0,0.45,0.267,0.703,1.003,0.966	c0.766,0.273,2.695,0.858,3.834,1.172c1.097,0.303,2.346,0.04,3.046-0.395c0.742-0.461,9.305-6.191,9.92-6.693	c0.614-0.502,1.104,0.141,0.602,0.644c-0.502,0.502-6.38,6.207-7.155,6.997c-0.941,0.959-0.273,1.953,0.358,2.351	c0.721,0.454,5.906,3.932,6.687,4.49c0.781,0.558,1.573,0.811,2.298,0.811C32.191,36.439,32.573,35.484,32.934,34.375z"></path>
</symbol>

<symbol id="icon-title-line" viewBox="0 0 880 50">
<path fill="currentColor" d="m485 0 25 25-25 25h50l25-25-25-25h-50zM425 0l-25 25 25 25h30l25-25-25-25h-30zM345 0l-25 25 25 25h50l-25-25 25-25h-50zM565 0l25 25-25 25h50l25-25-25-25h-50zM265 0l-25 25 25 25h50l-25-25 25-25h-50zM645 0l25 25-25 25h50l25-25-25-25h-50zM725 0l25 25-25 25h50l25-25-25-25h-50zM855 0h-50l25 25-25 25h50l25-25-25-25zM185 0l-25 25 25 25h50l-25-25 25-25h-50zM105 0 80 25l25 25h50l-25-25 25-25h-50zM25 0 0 25l25 25h50L50 25 75 0H25z"></path>
</symbol>

<symbol id="icon-download" viewBox="0 0 24 24">
  <path strokeLinecap="round" strokeLinejoin="round" d="M3 16.5v2.25A2.25 2.25 0 0 0 5.25 21h13.5A2.25 2.25 0 0 0 21 18.75V16.5M16.5 12 12 16.5m0 0L7.5 12m4.5 4.5V3" />
</symbol>

<symbol id="icon-moon" viewBox="0 0 24 24">
  <path fillRule="evenodd" d="M9.528 1.718a.75.75 0 0 1 .162.819A8.97 8.97 0 0 0 9 6a9 9 0 0 0 9 9 8.97 8.97 0 0 0 3.463-.69.75.75 0 0 1 .981.98 10.503 10.503 0 0 1-9.694 6.46c-5.799 0-10.5-4.7-10.5-10.5 0-4.368 2.667-8.112 6.46-9.694a.75.75 0 0 1 .818.162Z" clipRule="evenodd" />
</symbol>

<symbol id="icon-sun" viewBox="0 0 24 24">
  <path d="M12 2.25a.75.75 0 0 1 .75.75v2.25a.75.75 0 0 1-1.5 0V3a.75.75 0 0 1 .75-.75ZM7.5 12a4.5 4.5 0 1 1 9 0 4.5 4.5 0 0 1-9 0ZM18.894 6.166a.75.75 0 0 0-1.06-1.06l-1.591 1.59a.75.75 0 1 0 1.06 1.061l1.591-1.59ZM21.75 12a.75.75 0 0 1-.75.75h-2.25a.75.75 0 0 1 0-1.5H21a.75.75 0 0 1 .75.75ZM17.834 18.894a.75.75 0 0 0 1.06-1.06l-1.59-1.591a.75.75 0 1 0-1.061 1.06l1.59 1.591ZM12 18a.75.75 0 0 1 .75.75V21a.75.75 0 0 1-1.5 0v-2.25A.75.75 0 0 1 12 18ZM7.758 17.303a.75.75 0 0 0-1.061-1.06l-1.591 1.59a.75.75 0 0 0 1.06 1.061l1.591-1.59ZM6 12a.75.75 0 0 1-.75.75H3a.75.75 0 0 1 0-1.5h2.25A.75.75 0 0 1 6 12ZM6.697 7.757a.75.75 0 0 0 1.06-1.06l-1.59-1.591a.75.75 0 0 0-1.061 1.06l1.59 1.591Z" />
</symbol>

<symbol id="icon-location" viewBox="0 0 24 24">
  <path fill-rule="evenodd" d="m11.54 22.351.07.04.028.016a.76.76 0 0 0 .723 0l.028-.015.071-.041a16.975 16.975 0 0 0 1.144-.742 19.58 19.58 0 0 0 2.683-2.282c1.944-1.99 3.963-4.98 3.963-8.827a8.25 8.25 0 0 0-16.5 0c0 3.846 2.02 6.837 3.963 8.827a19.58 19.58 0 0 0 2.682 2.282 16.975 16.975 0 0 0 1.145.742ZM12 13.5a3 3 0 1 0 0-6 3 3 0 0 0 0 6Z" clip-rule="evenodd" />
</symbol>

<symbol id="icon-phone" viewBox="0 0 24 24">
  <path fill-rule="evenodd" d="M1.5 4.5a3 3 0 0 1 3-3h1.372c.86 0 1.61.586 1.819 1.42l1.105 4.423a1.875 1.875 0 0 1-.694 1.955l-1.293.97c-.135.101-.164.249-.126.352a11.285 11.285 0 0 0 6.697 6.697c.103.038.25.009.352-.126l.97-1.293a1.875 1.875 0 0 1 1.955-.694l4.423 1.105c.834.209 1.42.959 1.42 1.82V19.5a3 3 0 0 1-3 3h-2.25C8.552 22.5 1.5 15.448 1.5 6.75V4.5Z" clip-rule="evenodd" />
</symbol>

<symbol id="icon-code" viewBox="0 0 24 24">

  <path d="M17 7.82959L18.6965 9.35641C20.239 10.7447 21.0103 11.4389 21.0103 12.3296C21.0103 13.2203 20.239 13.9145 18.6965 15.3028L17 16.8296" stroke="var(--color-secondary)" stroke-width="1.5" stroke-linecap="round"/>
  <path d="M13.9868 5L12 12.4149L10.0132 19.8297" stroke="var(--color-secondary)" stroke-width="1.5" stroke-linecap="round"/>
  <path d="M7.00005 7.82959L5.30358 9.35641C3.76102 10.7447 2.98975 11.4389 2.98975 12.3296C2.98975 13.2203 3.76102 13.9145 5.30358 15.3028L7.00005 16.8296" stroke="var(--color-secondary)" stroke-width="1.5" stroke-linecap="round"/>

</symbol>


<symbol id="icon-solid-star" viewBox="0 0 24 24">
  <path fillRule="evenodd" d="M10.788 3.21c.448-1.077 1.976-1.077 2.424 0l2.082 5.006 5.404.434c1.164.093 1.636 1.545.749 2.305l-4.117 3.527 1.257 5.273c.271 1.136-.964 2.033-1.96 1.425L12 18.354 7.373 21.18c-.996.608-2.231-.29-1.96-1.425l1.257-5.273-4.117-3.527c-.887-.76-.415-2.212.749-2.305l5.404-.434 2.082-5.005Z" clipRule="evenodd" />
</symbol>


<symbol id="icon-outline-star" viewBox="0 0 24 24">
  <path strokeLinecap="round" fill="none" stroke="currentColor" strokeLinejoin="round" d="M11.48 3.499a.562.562 0 0 1 1.04 0l2.125 5.111a.563.563 0 0 0 .475.345l5.518.442c.499.04.701.663.321.988l-4.204 3.602a.563.563 0 0 0-.182.557l1.285 5.385a.562.562 0 0 1-.84.61l-4.725-2.885a.562.562 0 0 0-.586 0L6.982 20.54a.562.562 0 0 1-.84-.61l1.285-5.386a.562.562 0 0 0-.182-.557l-4.204-3.602a.562.562 0 0 1 .321-.988l5.518-.442a.563.563 0 0 0 .475-.345L11.48 3.5Z" />
</symbol>

<symbol id="icon-list" viewBox="0 0 24 24">
  <path fillRule="evenodd" d="M7.502 6h7.128A3.375 3.375 0 0 1 18 9.375v9.375a3 3 0 0 0 3-3V6.108c0-1.505-1.125-2.811-2.664-2.94a48.972 48.972 0 0 0-.673-.05A3 3 0 0 0 15 1.5h-1.5a3 3 0 0 0-2.663 1.618c-.225.015-.45.032-.673.05C8.662 3.295 7.554 4.542 7.502 6ZM13.5 3A1.5 1.5 0 0 0 12 4.5h4.5A1.5 1.5 0 0 0 15 3h-1.5Z" clipRule="evenodd" />
  <path fillRule="evenodd" d="M3 9.375C3 8.339 3.84 7.5 4.875 7.5h9.75c1.036 0 1.875.84 1.875 1.875v11.25c0 1.035-.84 1.875-1.875 1.875h-9.75A1.875 1.875 0 0 1 3 20.625V9.375ZM6 12a.75.75 0 0 1 .75-.75h.008a.75.75 0 0 1 .75.75v.008a.75.75 0 0 1-.75.75H6.75a.75.75 0 0 1-.75-.75V12Zm2.25 0a.75.75 0 0 1 .75-.75h3.75a.75.75 0 0 1 0 1.5H9a.75.75 0 0 1-.75-.75ZM6 15a.75.75 0 0 1 .75-.75h.008a.75.75 0 0 1 .75.75v.008a.75.75 0 0 1-.75.75H6.75a.75.75 0 0 1-.75-.75V15Zm2.25 0a.75.75 0 0 1 .75-.75h3.75a.75.75 0 0 1 0 1.5H9a.75.75 0 0 1-.75-.75ZM6 18a.75.75 0 0 1 .75-.75h.008a.75.75 0 0 1 .75.75v.008a.75.75 0 0 1-.75.75H6.75a.75.75 0 0 1-.75-.75V18Zm2.25 0a.75.75 0 0 1 .75-.75h3.75a.75.75 0 0 1 0 1.5H9a.75.75 0 0 1-.75-.75Z" clipRule="evenodd" />

</symbol>

<symbol id="icon-arrow-left" viewBox="0 0 24 24" fill="currentColor">
  <path fill-rule="evenodd" d="M7.28 7.72a.75.75 0 0 1 0 1.06l-2.47 2.47H21a.75.75 0 0 1 0 1.5H4.81l2.47 2.47a.75.75 0 1 1-1.06 1.06l-3.75-3.75a.75.75 0 0 1 0-1.06l3.75-3.75a.75.75 0 0 1 1.06 0Z" clip-rule="evenodd" />
</symbol>

<symbol id="icon-wrench" viewBox="0 0 24 24">
  <path strokeLinecap="round" strokeLinejoin="round" d="M11.42 15.17 17.25 21A2.652 2.652 0 0 0 21 17.25l-5.877-5.877M11.42 15.17l2.496-3.03c.317-.384.74-.626 1.208-.766M11.42 15.17l-4.655 5.653a2.548 2.548 0 1 1-3.586-3.586l6.837-5.63m5.108-.233c.55-.164 1.163-.188 1.743-.14a4.5 4.5 0 0 0 4.486-6.336l-3.276 3.277a3.004 3.004 0 0 1-2.25-2.25l3.276-3.276a4.5 4.5 0 0 0-6.336 4.486c.091 1.076-.071 2.264-.904 2.95l-.102.085m-1.745 1.437L5.909 7.5H4.5L2.25 3.75l1.5-1.5L7.5 4.5v1.409l4.26 4.26m-1.745 1.437 1.745-1.437m6.615 8.206L15.75 15.75M4.867 19.125h.008v.008h-.008v-.008Z" />
</symbol>

<symbol id="icon-calendar" viewBox="0 0 24 24">
  <path stroke-linecap="round" stroke-linejoin="round" d="M6.75 3v2.25M17.25 3v2.25M3 18.75V7.5a2.25 2.25 0 0 1 2.25-2.25h13.5A2.25 2.25 0 0 1 21 7.5v11.25m-18 0A2.25 2.25 0 0 0 5.25 21h13.5A2.25 2.25 0 0 0 21 18.75m-18 0v-7.5A2.25 2.25 0 0 1 5.25 9h13.5A2.25 2.25 0 0 1 21 11.25v7.5m-9-6h.008v.008H12v-.008ZM12 15h.008v.008H12V15Zm0 2.25h.008v.008H12v-.008ZM9.75 15h.008v.008H9.75V15Zm0 2.25h.008v.008H9.75v-.008ZM7.5 15h.008v.008H7.5V15Zm0 2.25h.008v.008H7.5v-.008Zm6.75-4.5h.008v.008h-.008v-.008Zm0 2.25h.008v.008h-.008V15Zm0 2.25h.008v.008h-.008v-.008Zm2.25-4.5h.008v.008H16.5v-.008Zm0 2.25h.008v.008H16.5V15Z" />
</symbol>

<symbol id="icon-time" viewBox="0 0 24 24">
  <path strokeLinecap="round" strokeLinejoin="round" d="M12 6v6h4.5m4.5 0a9 9 0 1 1-18 0 9 9 0 0 1 18 0Z" />

</symbol>

<symbol id="icon-arrow-up" viewBox="0 0 24 24">
  <path stroke-linecap="round" stroke-linejoin="round" d="M4.5 10.5 12 3m0 0 7.5 7.5M12 3v18" />
</symbol>

<!-- <symbol id="icon-code" viewBox="0 0 24 24">

</symbol> -->

<!-- <symbol id="icon-code" viewBox="0 0 24 24">

</symbol> -->

<!-- <symbol id="icon-code" viewBox="0 0 24 24">

</symbol> -->

</svg>
